<svg xmlns="http://www.w3.org/2000/svg" viewBox="0 0 500 500"><g id="freepik--background-complete--inject-61"><polygon points="464.68 333.14 464.68 446.47 215.68 446.47 215.68 355.98 237.28 355.98 237.28 382.21 242.84 382.21 242.84 336.36 270.31 336.36 270.31 379.88 273.94 379.88 273.94 324.69 297.81 324.69 297.81 339.83 310.06 339.83 310.06 358.69 313.76 358.69 313.76 346.83 335.47 346.83 335.47 382.2 341.81 382.2 341.81 353.45 361.66 353.45 361.66 331.61 375.16 331.61 375.16 319.17 390.77 319.17 390.77 374.34 396.02 374.34 396.02 351.31 421.74 351.31 421.74 384.27 425.3 384.27 425.3 357.37 451.38 357.37 451.38 333.14 464.68 333.14" style="fill:#ebebeb"></polygon><rect x="218.32" y="359.28" width="3.65" height="5.02" style="fill:#fff"></rect><rect x="224.66" y="359.28" width="3.65" height="5.02" style="fill:#fff"></rect><rect x="230.99" y="359.28" width="3.65" height="5.02" style="fill:#fff"></rect><rect x="218.32" y="366.82" width="3.65" height="5.02" style="fill:#fff"></rect><rect x="224.66" y="366.82" width="3.65" height="5.02" style="fill:#fff"></rect><rect x="230.99" y="366.82" width="3.65" height="5.02" style="fill:#fff"></rect><rect x="218.32" y="374.37" width="3.65" height="5.02" style="fill:#fff"></rect><rect x="224.66" y="374.37" width="3.65" height="5.02" style="fill:#fff"></rect><rect x="230.99" y="374.37" width="3.65" height="5.02" style="fill:#fff"></rect><rect x="218.32" y="381.92" width="3.65" height="5.02" style="fill:#fff"></rect><rect x="224.66" y="381.92" width="3.65" height="5.02" style="fill:#fff"></rect><rect x="230.99" y="381.92" width="3.65" height="5.02" style="fill:#fff"></rect><rect x="344.86" y="357.03" width="3.65" height="4.18" style="fill:#fff"></rect><rect x="351.2" y="357.03" width="3.65" height="4.18" style="fill:#fff"></rect><rect x="357.53" y="357.03" width="3.65" height="4.18" style="fill:#fff"></rect><rect x="344.86" y="363.33" width="3.65" height="4.18" style="fill:#fff"></rect><rect x="351.2" y="363.33" width="3.65" height="4.18" style="fill:#fff"></rect><rect x="357.53" y="363.33" width="3.65" height="4.18" style="fill:#fff"></rect><rect x="344.86" y="369.62" width="3.65" height="4.18" style="fill:#fff"></rect><rect x="351.2" y="369.62" width="3.65" height="4.18" style="fill:#fff"></rect><rect x="357.53" y="369.62" width="3.65" height="4.18" style="fill:#fff"></rect><rect x="344.86" y="375.92" width="3.65" height="4.18" style="fill:#fff"></rect><rect x="351.2" y="375.92" width="3.65" height="4.18" style="fill:#fff"></rect><rect x="357.53" y="375.92" width="3.65" height="4.18" style="fill:#fff"></rect><rect x="344.86" y="382.37" width="3.65" height="4.18" style="fill:#fff"></rect><rect x="351.2" y="382.37" width="3.65" height="4.18" style="fill:#fff"></rect><rect x="357.53" y="382.37" width="3.65" height="4.18" style="fill:#fff"></rect><rect x="344.86" y="388.82" width="3.65" height="4.18" style="fill:#fff"></rect><rect x="351.2" y="388.82" width="3.65" height="4.18" style="fill:#fff"></rect><rect x="357.53" y="388.82" width="3.65" height="4.18" style="fill:#fff"></rect><rect x="344.86" y="395.28" width="3.65" height="4.18" style="fill:#fff"></rect><rect x="351.2" y="395.28" width="3.65" height="4.18" style="fill:#fff"></rect><rect x="357.53" y="395.28" width="3.65" height="4.18" style="fill:#fff"></rect><rect x="344.86" y="401.73" width="3.65" height="4.18" style="fill:#fff"></rect><rect x="351.2" y="401.73" width="3.65" height="4.18" style="fill:#fff"></rect><rect x="357.53" y="401.73" width="3.65" height="4.18" style="fill:#fff"></rect><rect x="245.96" y="339.58" width="21.04" height="3.14" style="fill:#fff"></rect><rect x="245.96" y="345.66" width="21.04" height="3.14" style="fill:#fff"></rect><rect x="245.96" y="351.75" width="21.04" height="3.14" style="fill:#fff"></rect><rect x="245.96" y="357.84" width="21.04" height="3.14" style="fill:#fff"></rect><rect x="245.96" y="363.92" width="21.04" height="3.14" style="fill:#fff"></rect><rect x="245.96" y="370.01" width="21.04" height="3.14" style="fill:#fff"></rect><rect x="245.96" y="376.1" width="21.04" height="3.14" style="fill:#fff"></rect><rect x="245.96" y="382.18" width="21.04" height="3.14" style="fill:#fff"></rect><rect x="399.13" y="354.24" width="19.34" height="3.14" style="fill:#fff"></rect><rect x="399.13" y="360.33" width="19.34" height="3.14" style="fill:#fff"></rect><rect x="399.13" y="366.41" width="19.34" height="3.14" style="fill:#fff"></rect><rect x="399.13" y="372.5" width="19.34" height="3.14" style="fill:#fff"></rect><rect x="399.13" y="378.59" width="19.34" height="3.14" style="fill:#fff"></rect><rect x="399.13" y="384.67" width="19.34" height="3.14" style="fill:#fff"></rect><rect x="399.13" y="390.76" width="19.34" height="3.14" style="fill:#fff"></rect><rect x="399.13" y="396.85" width="19.34" height="3.14" style="fill:#fff"></rect><rect x="399.13" y="402.63" width="19.34" height="3.14" style="fill:#fff"></rect><rect x="399.13" y="408.41" width="19.34" height="3.14" style="fill:#fff"></rect><rect x="399.13" y="414.2" width="19.34" height="3.14" style="fill:#fff"></rect><rect x="399.13" y="419.98" width="19.34" height="3.14" style="fill:#fff"></rect><rect x="399.13" y="425.76" width="19.34" height="3.14" style="fill:#fff"></rect><rect x="429.32" y="361.59" width="20.43" height="3.14" style="fill:#fff"></rect><rect x="429.32" y="367.68" width="20.43" height="3.14" style="fill:#fff"></rect><rect x="429.32" y="373.77" width="20.43" height="3.14" style="fill:#fff"></rect><rect x="429.32" y="379.85" width="20.43" height="3.14" style="fill:#fff"></rect><rect x="429.32" y="385.94" width="20.43" height="3.14" style="fill:#fff"></rect><rect x="429.32" y="392.02" width="20.43" height="3.14" style="fill:#fff"></rect><rect x="429.32" y="398.11" width="20.43" height="3.14" style="fill:#fff"></rect><rect x="429.32" y="404.2" width="20.43" height="3.14" style="fill:#fff"></rect><rect x="429.32" y="409.65" width="20.43" height="3.14" style="fill:#fff"></rect><rect x="429.32" y="415.09" width="20.43" height="3.14" style="fill:#fff"></rect><rect x="429.32" y="420.54" width="20.43" height="3.14" style="fill:#fff"></rect><rect x="320.11" y="349.67" width="6.5" height="3.03" style="fill:#fff"></rect><rect x="320.11" y="355.55" width="6.5" height="3.03" style="fill:#fff"></rect><rect x="320.11" y="361.43" width="6.5" height="3.03" style="fill:#fff"></rect><rect x="320.11" y="367.3" width="6.5" height="3.03" style="fill:#fff"></rect><rect x="320.11" y="373.18" width="6.5" height="3.03" style="fill:#fff"></rect><rect x="320.11" y="379.06" width="6.5" height="3.03" style="fill:#fff"></rect><rect x="320.11" y="384.94" width="6.5" height="3.03" style="fill:#fff"></rect><rect x="320.11" y="390.82" width="6.5" height="3.03" style="fill:#fff"></rect><rect x="328.95" y="349.67" width="6.5" height="3.03" style="fill:#fff"></rect><rect x="328.95" y="355.55" width="6.5" height="3.03" style="fill:#fff"></rect><rect x="328.95" y="361.43" width="6.5" height="3.03" style="fill:#fff"></rect><rect x="328.95" y="367.3" width="6.5" height="3.03" style="fill:#fff"></rect><rect x="328.95" y="373.18" width="6.5" height="3.03" style="fill:#fff"></rect><rect x="328.95" y="379.06" width="6.5" height="3.03" style="fill:#fff"></rect><rect x="328.95" y="384.94" width="6.5" height="3.03" style="fill:#fff"></rect><rect x="328.95" y="390.82" width="6.5" height="3.03" style="fill:#fff"></rect><rect x="277.56" y="327.87" width="6.77" height="4.78" style="fill:#fff"></rect><rect x="287.66" y="327.87" width="6.77" height="4.78" style="fill:#fff"></rect><rect x="277.56" y="334.88" width="6.77" height="4.78" style="fill:#fff"></rect><rect x="287.66" y="334.88" width="6.77" height="4.78" style="fill:#fff"></rect><rect x="277.56" y="341.9" width="6.77" height="4.78" style="fill:#fff"></rect><rect x="287.66" y="341.9" width="6.77" height="4.78" style="fill:#fff"></rect><rect x="277.56" y="348.92" width="6.77" height="4.78" style="fill:#fff"></rect><rect x="287.66" y="348.92" width="6.77" height="4.78" style="fill:#fff"></rect><rect x="277.56" y="355.94" width="6.77" height="4.78" style="fill:#fff"></rect><rect x="287.66" y="355.94" width="6.77" height="4.78" style="fill:#fff"></rect><rect x="277.56" y="362.95" width="6.77" height="4.78" style="fill:#fff"></rect><rect x="287.66" y="362.95" width="6.77" height="4.78" style="fill:#fff"></rect><rect x="277.56" y="369.97" width="6.77" height="4.78" style="fill:#fff"></rect><rect x="287.66" y="369.97" width="6.77" height="4.78" style="fill:#fff"></rect><rect x="277.56" y="376.99" width="6.77" height="4.78" style="fill:#fff"></rect><rect x="287.66" y="376.99" width="6.77" height="4.78" style="fill:#fff"></rect><rect x="300.16" y="341.9" width="6.77" height="4.78" style="fill:#fff"></rect><rect x="300.16" y="348.92" width="6.77" height="4.78" style="fill:#fff"></rect><rect x="300.16" y="355.94" width="6.77" height="4.78" style="fill:#fff"></rect><rect x="300.16" y="362.95" width="6.77" height="4.78" style="fill:#fff"></rect><rect x="300.16" y="369.97" width="6.77" height="4.78" style="fill:#fff"></rect><rect x="300.16" y="376.99" width="6.77" height="4.78" style="fill:#fff"></rect><rect x="277.56" y="383.92" width="6.77" height="4.78" style="fill:#fff"></rect><rect x="287.66" y="383.92" width="6.77" height="4.78" style="fill:#fff"></rect><rect x="300.16" y="383.92" width="6.77" height="4.78" style="fill:#fff"></rect><rect x="277.56" y="390.86" width="6.77" height="4.78" style="fill:#fff"></rect><rect x="287.66" y="390.86" width="6.77" height="4.78" style="fill:#fff"></rect><rect x="300.16" y="390.86" width="6.77" height="4.78" style="fill:#fff"></rect><rect x="277.56" y="397.79" width="6.77" height="4.78" style="fill:#fff"></rect><rect x="287.66" y="397.79" width="6.77" height="4.78" style="fill:#fff"></rect><rect x="300.16" y="397.79" width="6.77" height="4.78" style="fill:#fff"></rect><rect x="277.56" y="404.73" width="6.77" height="4.78" style="fill:#fff"></rect><rect x="287.66" y="404.73" width="6.77" height="4.78" style="fill:#fff"></rect><rect x="300.16" y="404.73" width="6.77" height="4.78" style="fill:#fff"></rect><rect x="277.56" y="411.66" width="6.77" height="4.78" style="fill:#fff"></rect><rect x="287.66" y="411.66" width="6.77" height="4.78" style="fill:#fff"></rect><rect x="300.16" y="411.66" width="6.77" height="4.78" style="fill:#fff"></rect><rect x="364.42" y="334.68" width="3.65" height="4.18" style="fill:#fff"></rect><rect x="370.76" y="334.68" width="3.65" height="4.18" style="fill:#fff"></rect><rect x="364.42" y="340.98" width="3.65" height="4.18" style="fill:#fff"></rect><rect x="370.76" y="340.98" width="3.65" height="4.18" style="fill:#fff"></rect><rect x="364.42" y="347.28" width="3.65" height="4.18" style="fill:#fff"></rect><rect x="370.76" y="347.28" width="3.65" height="4.18" style="fill:#fff"></rect><rect x="364.42" y="353.57" width="3.65" height="4.18" style="fill:#fff"></rect><rect x="370.76" y="353.57" width="3.65" height="4.18" style="fill:#fff"></rect><rect x="364.42" y="360.02" width="3.65" height="4.18" style="fill:#fff"></rect><rect x="370.76" y="360.02" width="3.65" height="4.18" style="fill:#fff"></rect><rect x="364.42" y="366.48" width="3.65" height="4.18" style="fill:#fff"></rect><rect x="370.76" y="366.48" width="3.65" height="4.18" style="fill:#fff"></rect><rect x="364.42" y="372.93" width="3.65" height="4.18" style="fill:#fff"></rect><rect x="370.76" y="372.93" width="3.65" height="4.18" style="fill:#fff"></rect><rect x="364.42" y="379.38" width="3.65" height="4.18" style="fill:#fff"></rect><rect x="370.76" y="379.38" width="3.65" height="4.18" style="fill:#fff"></rect><rect x="364.42" y="385.9" width="3.65" height="4.18" style="fill:#fff"></rect><rect x="370.76" y="385.9" width="3.65" height="4.18" style="fill:#fff"></rect><rect x="364.42" y="392.42" width="3.65" height="4.18" style="fill:#fff"></rect><rect x="370.76" y="392.42" width="3.65" height="4.18" style="fill:#fff"></rect><rect x="364.42" y="398.94" width="3.65" height="4.18" style="fill:#fff"></rect><rect x="370.76" y="398.94" width="3.65" height="4.18" style="fill:#fff"></rect><rect x="364.42" y="405.46" width="3.65" height="4.18" style="fill:#fff"></rect><rect x="370.76" y="405.46" width="3.65" height="4.18" style="fill:#fff"></rect><rect x="453.67" y="335.36" width="3.65" height="4.93" style="fill:#fff"></rect><rect x="460" y="335.36" width="3.65" height="4.93" style="fill:#fff"></rect><rect x="453.67" y="342.78" width="3.65" height="4.93" style="fill:#fff"></rect><rect x="460" y="342.78" width="3.65" height="4.93" style="fill:#fff"></rect><rect x="453.67" y="350.2" width="3.65" height="4.93" style="fill:#fff"></rect><rect x="460" y="350.2" width="3.65" height="4.93" style="fill:#fff"></rect><rect x="453.67" y="357.62" width="3.65" height="4.93" style="fill:#fff"></rect><rect x="460" y="357.62" width="3.65" height="4.93" style="fill:#fff"></rect><rect x="453.67" y="365.22" width="3.65" height="4.93" style="fill:#fff"></rect><rect x="460" y="365.22" width="3.65" height="4.93" style="fill:#fff"></rect><rect x="453.67" y="372.82" width="3.65" height="4.93" style="fill:#fff"></rect><rect x="460" y="372.82" width="3.65" height="4.93" style="fill:#fff"></rect><rect x="453.67" y="380.42" width="3.65" height="4.93" style="fill:#fff"></rect><rect x="460" y="380.42" width="3.65" height="4.93" style="fill:#fff"></rect><rect x="453.67" y="388.02" width="3.65" height="4.93" style="fill:#fff"></rect><rect x="460" y="388.02" width="3.65" height="4.93" style="fill:#fff"></rect><rect x="453.67" y="395.7" width="3.65" height="4.93" style="fill:#fff"></rect><rect x="460" y="395.7" width="3.65" height="4.93" style="fill:#fff"></rect><rect x="453.67" y="403.38" width="3.65" height="4.93" style="fill:#fff"></rect><rect x="460" y="403.38" width="3.65" height="4.93" style="fill:#fff"></rect><rect x="453.67" y="411.07" width="3.65" height="4.93" style="fill:#fff"></rect><rect x="460" y="411.07" width="3.65" height="4.93" style="fill:#fff"></rect><rect x="453.67" y="418.75" width="3.65" height="4.93" style="fill:#fff"></rect><rect x="460" y="418.75" width="3.65" height="4.93" style="fill:#fff"></rect><rect x="377.97" y="334.68" width="3.65" height="4.18" style="fill:#fff"></rect><rect x="384.3" y="334.68" width="3.65" height="4.18" style="fill:#fff"></rect><rect x="377.97" y="328.23" width="3.65" height="4.18" style="fill:#fff"></rect><rect x="384.3" y="328.23" width="3.65" height="4.18" style="fill:#fff"></rect><rect x="377.97" y="321.77" width="3.65" height="4.18" style="fill:#fff"></rect><rect x="384.3" y="321.77" width="3.65" height="4.18" style="fill:#fff"></rect><rect x="377.97" y="340.98" width="3.65" height="4.18" style="fill:#fff"></rect><rect x="384.3" y="340.98" width="3.65" height="4.18" style="fill:#fff"></rect><rect x="377.97" y="347.28" width="3.65" height="4.18" style="fill:#fff"></rect><rect x="384.3" y="347.28" width="3.65" height="4.18" style="fill:#fff"></rect><rect x="377.97" y="353.57" width="3.65" height="4.18" style="fill:#fff"></rect><rect x="384.3" y="353.57" width="3.65" height="4.18" style="fill:#fff"></rect><rect x="377.97" y="360.02" width="3.65" height="4.18" style="fill:#fff"></rect><rect x="384.3" y="360.02" width="3.65" height="4.18" style="fill:#fff"></rect><rect x="377.97" y="366.48" width="3.65" height="4.18" style="fill:#fff"></rect><rect x="384.3" y="366.48" width="3.65" height="4.18" style="fill:#fff"></rect><rect x="377.97" y="372.93" width="3.65" height="4.18" style="fill:#fff"></rect><rect x="384.3" y="372.93" width="3.65" height="4.18" style="fill:#fff"></rect><rect x="377.97" y="379.38" width="3.65" height="4.18" style="fill:#fff"></rect><rect x="384.3" y="379.38" width="3.65" height="4.18" style="fill:#fff"></rect><rect x="377.97" y="385.9" width="3.65" height="4.18" style="fill:#fff"></rect><rect x="384.3" y="385.9" width="3.65" height="4.18" style="fill:#fff"></rect><rect x="377.97" y="392.42" width="3.65" height="4.18" style="fill:#fff"></rect><rect x="384.3" y="392.42" width="3.65" height="4.18" style="fill:#fff"></rect><rect x="377.97" y="398.94" width="3.65" height="4.18" style="fill:#fff"></rect><rect x="384.3" y="398.94" width="3.65" height="4.18" style="fill:#fff"></rect><rect x="377.97" y="405.46" width="3.65" height="4.18" style="fill:#fff"></rect><rect x="384.3" y="405.46" width="3.65" height="4.18" style="fill:#fff"></rect><polygon points="215.68 446.47 35.32 446.47 35.32 344.98 56.92 344.98 56.92 371.21 62.48 371.21 62.48 356.36 89.95 356.36 89.95 379.88 93.59 379.88 93.59 324.69 117.46 324.69 117.46 339.83 129.7 339.83 129.7 358.69 133.41 358.69 133.41 346.83 155.11 346.83 155.11 382.2 161.46 382.2 161.46 353.45 181.31 353.45 181.31 331.61 194.8 331.61 210.41 331.68 210.41 374.34 215.67 374.34 215.68 446.47" style="fill:#ebebeb"></polygon><rect x="37.97" y="348.28" width="3.65" height="5.02" style="fill:#fff"></rect><rect x="44.3" y="348.28" width="3.65" height="5.02" style="fill:#fff"></rect><rect x="50.64" y="348.28" width="3.65" height="5.02" style="fill:#fff"></rect><rect x="37.97" y="355.82" width="3.65" height="5.02" style="fill:#fff"></rect><rect x="44.3" y="355.82" width="3.65" height="5.02" style="fill:#fff"></rect><rect x="50.64" y="355.82" width="3.65" height="5.02" style="fill:#fff"></rect><rect x="37.97" y="363.37" width="3.65" height="5.02" style="fill:#fff"></rect><rect x="44.3" y="363.37" width="3.65" height="5.02" style="fill:#fff"></rect><rect x="50.64" y="363.37" width="3.65" height="5.02" style="fill:#fff"></rect><rect x="37.97" y="370.92" width="3.65" height="5.02" style="fill:#fff"></rect><rect x="44.3" y="370.92" width="3.65" height="5.02" style="fill:#fff"></rect><rect x="50.64" y="370.92" width="3.65" height="5.02" style="fill:#fff"></rect><rect x="164.51" y="357.03" width="3.65" height="4.18" style="fill:#fff"></rect><rect x="170.84" y="357.03" width="3.65" height="4.18" style="fill:#fff"></rect><rect x="177.18" y="357.03" width="3.65" height="4.18" style="fill:#fff"></rect><rect x="164.51" y="363.33" width="3.65" height="4.18" style="fill:#fff"></rect><rect x="170.84" y="363.33" width="3.65" height="4.18" style="fill:#fff"></rect><rect x="177.18" y="363.33" width="3.65" height="4.18" style="fill:#fff"></rect><rect x="164.51" y="369.62" width="3.65" height="4.18" style="fill:#fff"></rect><rect x="170.84" y="369.62" width="3.65" height="4.18" style="fill:#fff"></rect><rect x="177.18" y="369.62" width="3.65" height="4.18" style="fill:#fff"></rect><rect x="164.51" y="375.92" width="3.65" height="4.18" style="fill:#fff"></rect><rect x="170.84" y="375.92" width="3.65" height="4.18" style="fill:#fff"></rect><rect x="177.18" y="375.92" width="3.65" height="4.18" style="fill:#fff"></rect><rect x="164.51" y="382.37" width="3.65" height="4.18" style="fill:#fff"></rect><rect x="170.84" y="382.37" width="3.65" height="4.18" style="fill:#fff"></rect><rect x="177.18" y="382.37" width="3.65" height="4.18" style="fill:#fff"></rect><rect x="164.51" y="388.82" width="3.65" height="4.18" style="fill:#fff"></rect><rect x="170.84" y="388.82" width="3.65" height="4.18" style="fill:#fff"></rect><rect x="177.18" y="388.82" width="3.65" height="4.18" style="fill:#fff"></rect><rect x="164.51" y="395.28" width="3.65" height="4.18" style="fill:#fff"></rect><rect x="170.84" y="395.28" width="3.65" height="4.18" style="fill:#fff"></rect><rect x="177.18" y="395.28" width="3.65" height="4.18" style="fill:#fff"></rect><rect x="164.51" y="401.73" width="3.65" height="4.18" style="fill:#fff"></rect><rect x="170.84" y="401.73" width="3.65" height="4.18" style="fill:#fff"></rect><rect x="177.18" y="401.73" width="3.65" height="4.18" style="fill:#fff"></rect><rect x="65.6" y="359.58" width="21.04" height="3.14" style="fill:#fff"></rect><rect x="65.6" y="365.66" width="21.04" height="3.14" style="fill:#fff"></rect><rect x="65.6" y="371.75" width="21.04" height="3.14" style="fill:#fff"></rect><rect x="65.6" y="377.84" width="21.04" height="3.14" style="fill:#fff"></rect><rect x="65.6" y="383.92" width="21.04" height="3.14" style="fill:#fff"></rect><rect x="65.6" y="390.01" width="21.04" height="3.14" style="fill:#fff"></rect><rect x="65.6" y="396.1" width="21.04" height="3.14" style="fill:#fff"></rect><rect x="65.6" y="402.18" width="21.04" height="3.14" style="fill:#fff"></rect><rect x="139.76" y="349.67" width="6.5" height="3.03" style="fill:#fff"></rect><rect x="139.76" y="355.55" width="6.5" height="3.03" style="fill:#fff"></rect><rect x="139.76" y="361.43" width="6.5" height="3.03" style="fill:#fff"></rect><rect x="139.76" y="367.3" width="6.5" height="3.03" style="fill:#fff"></rect><rect x="139.76" y="373.18" width="6.5" height="3.03" style="fill:#fff"></rect><rect x="139.76" y="379.06" width="6.5" height="3.03" style="fill:#fff"></rect><rect x="139.76" y="384.94" width="6.5" height="3.03" style="fill:#fff"></rect><rect x="139.76" y="390.82" width="6.5" height="3.03" style="fill:#fff"></rect><rect x="148.6" y="349.67" width="6.5" height="3.03" style="fill:#fff"></rect><rect x="148.6" y="355.55" width="6.5" height="3.03" style="fill:#fff"></rect><rect x="148.6" y="361.43" width="6.5" height="3.03" style="fill:#fff"></rect><rect x="148.6" y="367.3" width="6.5" height="3.03" style="fill:#fff"></rect><rect x="148.6" y="373.18" width="6.5" height="3.03" style="fill:#fff"></rect><rect x="148.6" y="379.06" width="6.5" height="3.03" style="fill:#fff"></rect><rect x="148.6" y="384.94" width="6.5" height="3.03" style="fill:#fff"></rect><rect x="148.6" y="390.82" width="6.5" height="3.03" style="fill:#fff"></rect><rect x="97.21" y="327.87" width="6.77" height="4.78" style="fill:#fff"></rect><rect x="107.3" y="327.87" width="6.77" height="4.78" style="fill:#fff"></rect><rect x="97.21" y="334.88" width="6.77" height="4.78" style="fill:#fff"></rect><rect x="107.3" y="334.88" width="6.77" height="4.78" style="fill:#fff"></rect><rect x="97.21" y="341.9" width="6.77" height="4.78" style="fill:#fff"></rect><rect x="107.3" y="341.9" width="6.77" height="4.78" style="fill:#fff"></rect><rect x="97.21" y="348.92" width="6.77" height="4.78" style="fill:#fff"></rect><rect x="107.3" y="348.92" width="6.77" height="4.78" style="fill:#fff"></rect><rect x="97.21" y="355.94" width="6.77" height="4.78" style="fill:#fff"></rect><rect x="107.3" y="355.94" width="6.77" height="4.78" style="fill:#fff"></rect><rect x="97.21" y="362.95" width="6.77" height="4.78" style="fill:#fff"></rect><rect x="107.3" y="362.95" width="6.77" height="4.78" style="fill:#fff"></rect><rect x="97.21" y="369.97" width="6.77" height="4.78" style="fill:#fff"></rect><rect x="107.3" y="369.97" width="6.77" height="4.78" style="fill:#fff"></rect><rect x="97.21" y="376.99" width="6.77" height="4.78" style="fill:#fff"></rect><rect x="107.3" y="376.99" width="6.77" height="4.78" style="fill:#fff"></rect><rect x="119.81" y="341.9" width="6.77" height="4.78" style="fill:#fff"></rect><rect x="119.81" y="348.92" width="6.77" height="4.78" style="fill:#fff"></rect><rect x="119.81" y="355.94" width="6.77" height="4.78" style="fill:#fff"></rect><rect x="119.81" y="362.95" width="6.77" height="4.78" style="fill:#fff"></rect><rect x="119.81" y="369.97" width="6.77" height="4.78" style="fill:#fff"></rect><rect x="119.81" y="376.99" width="6.77" height="4.78" style="fill:#fff"></rect><rect x="97.21" y="383.92" width="6.77" height="4.78" style="fill:#fff"></rect><rect x="107.3" y="383.92" width="6.77" height="4.78" style="fill:#fff"></rect><rect x="119.81" y="383.92" width="6.77" height="4.78" style="fill:#fff"></rect><rect x="97.21" y="390.86" width="6.77" height="4.78" style="fill:#fff"></rect><rect x="107.3" y="390.86" width="6.77" height="4.78" style="fill:#fff"></rect><rect x="119.81" y="390.86" width="6.77" height="4.78" style="fill:#fff"></rect><rect x="97.21" y="397.79" width="6.77" height="4.78" style="fill:#fff"></rect><rect x="107.3" y="397.79" width="6.77" height="4.78" style="fill:#fff"></rect><rect x="119.81" y="397.79" width="6.77" height="4.78" style="fill:#fff"></rect><rect x="97.21" y="404.73" width="6.77" height="4.78" style="fill:#fff"></rect><rect x="107.3" y="404.73" width="6.77" height="4.78" style="fill:#fff"></rect><rect x="119.81" y="404.73" width="6.77" height="4.78" style="fill:#fff"></rect><rect x="97.21" y="411.66" width="6.77" height="4.78" style="fill:#fff"></rect><rect x="107.3" y="411.66" width="6.77" height="4.78" style="fill:#fff"></rect><rect x="119.81" y="411.66" width="6.77" height="4.78" style="fill:#fff"></rect><rect x="184.06" y="334.68" width="3.65" height="4.18" style="fill:#fff"></rect><rect x="190.4" y="334.68" width="3.65" height="4.18" style="fill:#fff"></rect><rect x="184.06" y="340.98" width="3.65" height="4.18" style="fill:#fff"></rect><rect x="190.4" y="340.98" width="3.65" height="4.18" style="fill:#fff"></rect><rect x="184.06" y="347.28" width="3.65" height="4.18" style="fill:#fff"></rect><rect x="190.4" y="347.28" width="3.65" height="4.18" style="fill:#fff"></rect><rect x="184.06" y="353.57" width="3.65" height="4.18" style="fill:#fff"></rect><rect x="190.4" y="353.57" width="3.65" height="4.18" style="fill:#fff"></rect><rect x="184.06" y="360.02" width="3.65" height="4.18" style="fill:#fff"></rect><rect x="190.4" y="360.02" width="3.65" height="4.18" style="fill:#fff"></rect><rect x="184.06" y="366.48" width="3.65" height="4.18" style="fill:#fff"></rect><rect x="190.4" y="366.48" width="3.65" height="4.18" style="fill:#fff"></rect><rect x="184.06" y="372.93" width="3.65" height="4.18" style="fill:#fff"></rect><rect x="190.4" y="372.93" width="3.65" height="4.18" style="fill:#fff"></rect><rect x="184.06" y="379.38" width="3.65" height="4.18" style="fill:#fff"></rect><rect x="190.4" y="379.38" width="3.65" height="4.18" style="fill:#fff"></rect><rect x="184.06" y="385.9" width="3.65" height="4.18" style="fill:#fff"></rect><rect x="190.4" y="385.9" width="3.65" height="4.18" style="fill:#fff"></rect><rect x="184.06" y="392.42" width="3.65" height="4.18" style="fill:#fff"></rect><rect x="190.4" y="392.42" width="3.65" height="4.18" style="fill:#fff"></rect><rect x="184.06" y="398.94" width="3.65" height="4.18" style="fill:#fff"></rect><rect x="190.4" y="398.94" width="3.65" height="4.18" style="fill:#fff"></rect><rect x="184.06" y="405.46" width="3.65" height="4.18" style="fill:#fff"></rect><rect x="190.4" y="405.46" width="3.65" height="4.18" style="fill:#fff"></rect><rect x="197.61" y="334.68" width="3.65" height="4.18" style="fill:#fff"></rect><rect x="203.95" y="334.68" width="3.65" height="4.18" style="fill:#fff"></rect><rect x="197.61" y="340.98" width="3.65" height="4.18" style="fill:#fff"></rect><rect x="203.95" y="340.98" width="3.65" height="4.18" style="fill:#fff"></rect><rect x="197.61" y="347.28" width="3.65" height="4.18" style="fill:#fff"></rect><rect x="203.95" y="347.28" width="3.65" height="4.18" style="fill:#fff"></rect><rect x="197.61" y="353.57" width="3.65" height="4.18" style="fill:#fff"></rect><rect x="203.95" y="353.57" width="3.65" height="4.18" style="fill:#fff"></rect><rect x="197.61" y="360.02" width="3.65" height="4.18" style="fill:#fff"></rect><rect x="203.95" y="360.02" width="3.65" height="4.18" style="fill:#fff"></rect><rect x="197.61" y="366.48" width="3.65" height="4.18" style="fill:#fff"></rect><rect x="203.95" y="366.48" width="3.65" height="4.18" style="fill:#fff"></rect><rect x="197.61" y="372.93" width="3.65" height="4.18" style="fill:#fff"></rect><rect x="203.95" y="372.93" width="3.65" height="4.18" style="fill:#fff"></rect><rect x="197.61" y="379.38" width="3.65" height="4.18" style="fill:#fff"></rect><rect x="203.95" y="379.38" width="3.65" height="4.18" style="fill:#fff"></rect><rect x="197.61" y="385.9" width="3.65" height="4.18" style="fill:#fff"></rect><rect x="203.95" y="385.9" width="3.65" height="4.18" style="fill:#fff"></rect><rect x="197.61" y="392.42" width="3.65" height="4.18" style="fill:#fff"></rect><rect x="203.95" y="392.42" width="3.65" height="4.18" style="fill:#fff"></rect><rect x="197.61" y="398.94" width="3.65" height="4.18" style="fill:#fff"></rect><rect x="203.95" y="398.94" width="3.65" height="4.18" style="fill:#fff"></rect><rect x="197.61" y="405.46" width="3.65" height="4.18" style="fill:#fff"></rect><rect x="203.95" y="405.46" width="3.65" height="4.18" style="fill:#fff"></rect><path d="M48.49,123.56H156.16S145.49,94.4,129.06,94.4s-21.58,20.12-21.58,20.12-11.09-10.93-20.19-10.93-17,14.45-17,14.45S57.4,110.27,48.49,123.56Z" style="fill:#ebebeb"></path><path d="M303.05,232.86h50.32s-11.25-16.3-20.1-16.3-11.48,10.87-11.48,10.87-6.25-5.07-12-4.17S303.05,232.86,303.05,232.86Z" style="fill:#ebebeb;opacity:0.5"></path><path d="M353.5,182.46h98s-13.42-30-27.78-31.83-21.22,22.26-21.22,22.26-9.26-8.53-16.55-8.53-12.9,11.24-12.9,11.24S358.49,167.9,353.5,182.46Z" style="fill:#ebebeb"></path><path d="M306.36,122h66.21s-11.37-21.71-23.71-22S330,116.4,330,116.4,310.84,101,306.36,122Z" style="fill:#ebebeb;opacity:0.5"></path><path d="M137.6,253.19h66.21s-11.38-21.71-23.72-22-18.82,16.43-18.82,16.43S142.08,232.19,137.6,253.19Z" style="fill:#ebebeb;opacity:0.5"></path></g><g id="freepik--Confetti--inject-61"><path d="M123.84,118.23a2.33,2.33,0,1,1-2.62-2A2.34,2.34,0,0,1,123.84,118.23Z" style="fill:#6373A3"></path><path d="M121.51,158.85a2.33,2.33,0,1,1-2.62-2A2.33,2.33,0,0,1,121.51,158.85Z" style="fill:#263238"></path><path d="M204.25,208.31a1.16,1.16,0,0,1-2.31.3,1.16,1.16,0,0,1,2.31-.3Z" style="fill:#6373A3"></path><path d="M163.29,76.46a1.17,1.17,0,1,1-1.31-1A1.17,1.17,0,0,1,163.29,76.46Z" style="fill:#6373A3"></path><path d="M308,50.29a1.16,1.16,0,0,1-2.31.3,1.16,1.16,0,0,1,2.31-.3Z" style="fill:#263238"></path><path d="M176.49,138.92a1.17,1.17,0,1,1-2.31.31,1.17,1.17,0,0,1,2.31-.31Z" style="fill:#263238"></path><path d="M283.77,243.63a1.16,1.16,0,1,1-2.31.3,1.16,1.16,0,0,1,2.31-.3Z" style="fill:#455a64"></path><path d="M118.55,250.36a1.16,1.16,0,1,1-1.3-1A1.15,1.15,0,0,1,118.55,250.36Z" style="fill:#6373A3"></path><path d="M83.45,206.41a2.33,2.33,0,1,1-2.62-2A2.32,2.32,0,0,1,83.45,206.41Z" style="fill:#6373A3"></path><path d="M225.43,50.13a2.33,2.33,0,1,1-2.62-2A2.33,2.33,0,0,1,225.43,50.13Z" style="fill:#6373A3"></path><path d="M383.64,284.46l3.3-1.11s-2.25-1.16-2.25-4.77,3.09-5,1.76-8.29l-3.68,1a6.81,6.81,0,0,1,.17,5.53C382,278.88,381.08,281.35,383.64,284.46Z" style="fill:#6373A3"></path><path d="M109.72,276.65l-3.26-1.23s1,2.32-1.26,5.12-5.57,2-6.59,5.34l3.47,1.55a6.82,6.82,0,0,1,3.36-4.4C107.51,282,109.74,280.67,109.72,276.65Z" style="fill:#6373A3"></path><path d="M200.3,123,197,121.8s1,2.32-1.26,5.12-5.57,2-6.59,5.33l3.47,1.56a6.79,6.79,0,0,1,3.36-4.4C198.09,128.4,200.32,127.05,200.3,123Z" style="fill:#455a64"></path><path d="M319,227.27l-3.26-1.22s1,2.32-1.26,5.12-5.57,2-6.59,5.33l3.47,1.56a6.79,6.79,0,0,1,3.36-4.4C316.81,232.65,319.05,231.3,319,227.27Z" style="fill:#455a64"></path><path d="M180,196.52l.47-3.44s-2,1.5-5.27-.1-3.14-5-6.66-5.25l-.75,3.73a6.82,6.82,0,0,1,5,2.3C174.3,195.56,176.12,197.44,180,196.52Z" style="fill:#6373A3"></path><path d="M336.76,264.48l.47-3.45s-2,1.5-5.27-.1-3.14-5-6.66-5.25l-.75,3.73a6.81,6.81,0,0,1,5,2.31C331,263.51,332.84,265.39,336.76,264.48Z" style="fill:#455a64"></path><path d="M322.68,105.09l.47-3.44s-2,1.5-5.27-.1-3.14-5-6.66-5.25l-.75,3.73a6.82,6.82,0,0,1,5,2.3C316.94,104.12,318.76,106,322.68,105.09Z" style="fill:#6373A3"></path><path d="M386,121.6l-3.66-2s-3,4.47.6,6.73C382.93,126.34,382.19,123.43,386,121.6Z" style="fill:#6373A3"></path><path d="M383,131.79l3.86-1.43s.23-3.31-3.95-4C382.93,126.34,385.55,129.34,383,131.79Z" style="fill:#6373A3"></path><path d="M190.58,228.82l-3.67-2s-3,4.48.6,6.73C187.51,233.56,186.78,230.66,190.58,228.82Z" style="fill:#455a64"></path><path d="M187.61,239l3.85-1.44s.23-3.3-4-4C187.51,233.56,190.13,236.56,187.61,239Z" style="fill:#455a64"></path><path d="M333.63,96.7a2.33,2.33,0,1,1,2.61,2A2.33,2.33,0,0,1,333.63,96.7Z" style="fill:#263238"></path><path d="M370.46,153.39a2.33,2.33,0,1,1,2.62,2A2.33,2.33,0,0,1,370.46,153.39Z" style="fill:#6373A3"></path><path d="M360.8,237.41a1.16,1.16,0,1,1,1.3,1A1.16,1.16,0,0,1,360.8,237.41Z" style="fill:#6373A3"></path><path d="M225.64,200.1l-.48,3.45s2-1.5,5.27.1,3.15,5,6.67,5.25l.74-3.73a6.82,6.82,0,0,1-5-2.3C231.37,201.07,229.56,199.19,225.64,200.1Z" style="fill:#455a64"></path><path d="M417.33,239.37l-5.55,1.57s-2.65-6.94,2.86-8.9C414.64,232,412.76,235.74,417.33,239.37Z" style="fill:#455a64"></path><path d="M416.42,224.71l4.77,3.11s-.7,4.53-6.55,4.22C414.64,232,419.08,228.79,416.42,224.71Z" style="fill:#455a64"></path><path d="M318,183.39,312.42,185s-2.64-6.94,2.86-8.9C315.28,176.06,313.41,179.76,318,183.39Z" style="fill:#263238"></path><path d="M317.07,168.73l4.77,3.11s-.7,4.53-6.56,4.22C315.28,176.06,319.73,172.81,317.07,168.73Z" style="fill:#263238"></path><path d="M128.47,216.17l-5.56,1.57s-2.64-6.94,2.86-8.9C125.77,208.84,123.89,212.54,128.47,216.17Z" style="fill:#263238"></path><path d="M127.56,201.51l4.77,3.11s-.71,4.53-6.56,4.22C125.77,208.84,130.22,205.59,127.56,201.51Z" style="fill:#263238"></path><path d="M361.76,172.22l3.67,2s3-4.48-.6-6.73C364.83,167.48,365.56,170.38,361.76,172.22Z" style="fill:#455a64"></path><path d="M364.73,162l-3.86,1.44s-.22,3.3,4,4C364.83,167.48,362.21,164.48,364.73,162Z" style="fill:#455a64"></path><path d="M234.17,154.62l3.67,2s3-4.47-.6-6.73C237.24,149.88,238,152.79,234.17,154.62Z" style="fill:#6373A3"></path><path d="M237.14,144.43l-3.86,1.43s-.22,3.31,4,4C237.24,149.88,234.62,146.89,237.14,144.43Z" style="fill:#6373A3"></path><path d="M266.32,286.87l.61,4.12s5.36-.31,5-4.52C272,286.47,270.07,288.8,266.32,286.87Z" style="fill:#6373A3"></path><path d="M276.25,283.12l-3.46-2.22s-2.78,1.8-.84,5.57C272,286.47,272.77,282.58,276.25,283.12Z" style="fill:#6373A3"></path></g><g id="freepik--Floor--inject-61"><polygon points="33.36 446.81 87.52 446.57 141.68 446.48 250 446.31 358.32 446.48 412.48 446.57 466.64 446.81 412.48 447.06 358.32 447.14 250 447.31 141.68 447.14 87.52 447.05 33.36 446.81" style="fill:#263238"></polygon></g><g id="freepik--Character--inject-61"><path d="M297.69,213.42c-14.84,9.52-40.32,15.8-60.21,14.05A56.2,56.2,0,0,1,228.2,226c-4.09-1-8.07-2.13-11.91-3.18-25.56-7-47.62-13-85.66-2.63-45.43,12.38-55.56,18-56.44,18.12L80.9,231,72,225.45c.21,0,10.49-5.67,55.17-17.85,41.46-11.29,66.25-4.52,92.5,2.64,3.8,1,7.72,2.11,11.7,3.13a46.15,46.15,0,0,0,4.68.92c18.92,2.72,46.32-4,57.63-13a10.53,10.53,0,0,0,2.88-3.37l.19,14C297,212.13,297.26,212.66,297.69,213.42Z" style="fill:#6373A3"></path><path d="M297.69,213.42c-14.84,9.52-40.32,15.8-60.21,14.05A56.2,56.2,0,0,1,228.2,226c-4.09-1-8.07-2.13-11.91-3.18-25.56-7-47.62-13-85.66-2.63-45.43,12.38-55.56,18-56.44,18.12L80.9,231,72,225.45c.21,0,10.49-5.67,55.17-17.85,41.46-11.29,66.25-4.52,92.5,2.64,3.8,1,7.72,2.11,11.7,3.13a46.15,46.15,0,0,0,4.68.92c18.92,2.72,46.32-4,57.63-13a10.53,10.53,0,0,0,2.88-3.37l.19,14C297,212.13,297.26,212.66,297.69,213.42Z" style="opacity:0.2"></path><path d="M294.72,193.06s.23,33.62-6.35,40.88c0,0-43.41,79.91-66.8,84.45-19.81,3.85-91.94-49.56-91.94-49.56l22.81-35.14s12.61,6.14,29.81,15.53c14.2,7.76,26.4,16.55,26.77,15.9,5.38-9.68,27.32-37.19,26.89-39-4.75-20.13,9.61-33,9.61-33Z" style="fill:#263238"></path><path d="M288.36,233.94s-10.66,19.64-24.27,40L235.9,226.09v0c-4.73-20.12,9.63-33,9.63-33h49.2S294.94,226.68,288.36,233.94Z" style="fill:#37474f"></path><path d="M64.19,262.3c.65-2.43,38.48-59.19,41.3-60.43,1.06-.49,47,31.82,47,31.82l-22.79,35-29.26-18.86S76.86,264.7,73.62,265.74,63.53,264.72,64.19,262.3Z" style="fill:#eb9481"></path><path d="M64.2,262.3c.65-2.43,38.47-59.19,41.28-60.43.51-.24,15,9.62,23.65,15.56L105.7,253.28l-5.31-3.41s-23.53,14.82-26.77,15.87S63.53,264.71,64.2,262.3Z" style="fill:#ebebeb"></path><path d="M64.06,262.56c.66-2.41,38.35-59.9,41.14-61.15,1.06-.48,9.65,5.28,18.77,12.47L100.3,250.46S76.67,264.94,73.46,266,63.41,265,64.06,262.56Z" style="fill:#6373A3"></path><path d="M66.86,263.26c6.55-9.32,32.05-47.53,37.81-57.24,0-.08,0-.12-.06,0-6.68,9.09-31.88,47.51-37.9,57.17C66.58,263.36,66.73,263.45,66.86,263.26Z" style="fill:#263238"></path><path d="M77.91,263.7a9.11,9.11,0,0,0,1.46-7.21A8.84,8.84,0,0,0,75.72,251s-.12.06-.07.11a10.55,10.55,0,0,1,2.14,12.5C77.75,263.7,77.86,263.78,77.91,263.7Z" style="fill:#263238"></path><path d="M97.37,252.79c2.58-3.75,4.17-9,2.64-13.46-.06-.17-.3-.09-.32.06a63,63,0,0,1-2.83,13.16A.29.29,0,0,0,97.37,252.79Z" style="fill:#263238"></path><path d="M94.28,255c2.58-3.75,4.17-9,2.64-13.47-.06-.17-.3-.08-.32.07a63.16,63.16,0,0,1-2.83,13.16A.29.29,0,0,0,94.28,255Z" style="fill:#263238"></path><path d="M91.19,257.13c2.58-3.76,4.17-9,2.64-13.47-.06-.17-.3-.08-.32.07a63.07,63.07,0,0,1-2.83,13.15A.29.29,0,0,0,91.19,257.13Z" style="fill:#263238"></path><path d="M88.1,259.3c2.58-3.76,4.17-9.05,2.64-13.47-.06-.17-.3-.08-.32.07a63.07,63.07,0,0,1-2.83,13.15A.29.29,0,0,0,88.1,259.3Z" style="fill:#263238"></path><path d="M112.06,214.42c2.82-4.26-3.8-8.65-6.62-4.38S109.24,218.69,112.06,214.42Z" style="fill:#263238"></path><path d="M104.76,263.64c2.88-.87,2.93-4.33,2.07-6.6a24,24,0,0,0-5.46-8.2c-.32-.34-.66-.65-1-1a5.63,5.63,0,0,1-.45-.38s0,0,0,0l-.13-.08-.37-.3a.12.12,0,0,0-.18.06.6.6,0,0,0-.62.14.42.42,0,0,0-.14.33c0,1.09,0,2.21,0,3.33a5.56,5.56,0,0,0,0,.58,24.34,24.34,0,0,0,.94,8.08C100.16,261.86,102.05,264.44,104.76,263.64Zm-5-10c0-.94-.06-1.88-.09-2.81s-.06-1.58-.1-2.37c0-.11,0-.23,0-.33s0-.21,0-.3l.18.22s0,0,0,0c.38.51.75,1,1.14,1.49a45.53,45.53,0,0,1,2.87,4.14,26,26,0,0,1,1.64,3.08c.7,1.66,1.38,7.5-3,5.12C100,260.59,99.9,255.92,99.81,253.62Z" style="fill:#263238"></path><path d="M99.1,248.09a.12.12,0,0,0,.15.12,1.79,1.79,0,0,0,.35-.1.2.2,0,0,0,.14,0s0,0,0,0a2.39,2.39,0,0,0,.61-.17,15,15,0,0,0,2.15-.79,23.75,23.75,0,0,0,7.5-5c1.72-1.73,3.06-4.91.78-6.86a2.48,2.48,0,0,0-.26-.19c-2.11-1.53-4.74,0-6.27,1.68a23.25,23.25,0,0,0-3.69,6c-.67,1.51-1.3,3-2,4.51l0,0A.55.55,0,0,0,99.1,248.09Zm3.12-5.65c1-2.08,3-6.3,5.76-6.53a3.7,3.7,0,0,1,1.87.23c2.12,1-.13,4.63-1.22,5.66a26.2,26.2,0,0,1-2.74,2.18c-.72.51-1.45,1-2.22,1.41-1.23.74-2.49,1.41-3.74,2.12h0c-.08,0-.15.1-.23.13a.82.82,0,0,0,.11-.23c.12-.2.22-.38.32-.59C100.84,245.38,101.5,243.9,102.22,242.44Z" style="fill:#263238"></path><path d="M441.23,407.09c-1.57,2-58.89,38.93-62,39-1.17,0-30.37-47.91-30.37-47.91l34.88-23,19.3,29s27.5-4.21,30.88-3.88S442.8,405.13,441.23,407.09Z" style="fill:#eb9481"></path><path d="M441.22,407.09c-1.56,2-58.89,38.93-62,39-.56,0-9.91-14.81-15.48-23.71l35.79-23.53,3.5,5.25s27.49-4.21,30.88-3.88S442.8,405.14,441.22,407.09Z" style="fill:#ebebeb"></path><path d="M441.45,406.9c-1.56,2-59.05,39.64-62.11,39.67-1.17,0-6.74-8.69-12.24-18.92l36.29-24.1s27.45-3.87,30.81-3.54S443,404.94,441.45,406.9Z" style="fill:#6373A3"></path><path d="M439.16,405.14c-9.72,5.94-48.34,30.81-57.5,37.41-.07.06,0,.11,0,.06,9.76-5.67,48.19-30.85,57.56-37.31C439.46,405.16,439.37,405,439.16,405.14Z" style="fill:#263238"></path><path d="M429.21,400.33a9.16,9.16,0,0,0-4.22,6,8.84,8.84,0,0,0,1.16,6.48c0,.06.14,0,.11-.07a10.57,10.57,0,0,1,3-12.32C429.36,400.39,429.28,400.28,429.21,400.33Z" style="fill:#263238"></path><path d="M407,402.57c-3.86,2.42-7.43,6.63-7.79,11.3,0,.18.24.2.32.06A62.84,62.84,0,0,1,407.38,403,.29.29,0,0,0,407,402.57Z" style="fill:#263238"></path><path d="M410.71,401.81c-3.87,2.42-7.43,6.64-7.79,11.3,0,.18.24.2.32.07a62.92,62.92,0,0,1,7.84-10.94A.29.29,0,0,0,410.71,401.81Z" style="fill:#263238"></path><path d="M414.41,401.06c-3.87,2.42-7.43,6.63-7.79,11.3,0,.18.24.2.32.06a62.84,62.84,0,0,1,7.84-10.93A.29.29,0,0,0,414.41,401.06Z" style="fill:#263238"></path><path d="M418.11,400.3c-3.87,2.42-7.43,6.64-7.79,11.3,0,.18.24.2.32.07a62.92,62.92,0,0,1,7.84-10.94A.29.29,0,0,0,418.11,400.3Z" style="fill:#263238"></path><path d="M378.24,431.9c-4.29,2.78,0,9.45,4.32,6.66S382.53,429.11,378.24,431.9Z" style="fill:#263238"></path><path d="M404.56,389.68c-3-.36-4.41,2.8-4.53,5.23a24.15,24.15,0,0,0,1.73,9.69c.16.44.35.86.54,1.27.1.17.18.35.26.52,0,0,0,0,0,0l.09.13.22.42a.12.12,0,0,0,.19,0,.59.59,0,0,0,.63.12.43.43,0,0,0,.26-.24c.41-1,.87-2,1.32-3.06.09-.17.16-.34.24-.52a24.44,24.44,0,0,0,2.36-7.79C408.07,393.15,407.37,390,404.56,389.68Zm.55,11.16c-.34.88-.7,1.75-1,2.61s-.58,1.48-.86,2.22c0,.1-.08.22-.11.31l-.1.28c0-.09-.05-.18-.07-.27s0,0,0,0c-.15-.61-.28-1.21-.44-1.82a43.18,43.18,0,0,1-1-4.94,26.91,26.91,0,0,1-.27-3.48c0-1.8,1.72-7.42,4.78-3.5C407.69,394.37,405.94,398.7,405.11,400.84Z" style="fill:#263238"></path><path d="M403.55,406.19a.12.12,0,0,0-.09-.17,1.59,1.59,0,0,0-.36,0,.16.16,0,0,0-.14,0s0,0,0,0a2.7,2.7,0,0,0-.62-.08,14.67,14.67,0,0,0-2.29-.14,23.65,23.65,0,0,0-8.86,1.57c-2.26.9-4.76,3.28-3.45,6a2.54,2.54,0,0,0,.16.28c1.33,2.24,4.36,1.87,6.42,1a23.12,23.12,0,0,0,5.8-4.07c1.22-1.11,2.4-2.27,3.61-3.35l0,0A.55.55,0,0,0,403.55,406.19Zm-5.11,3.94c-1.77,1.5-5.29,4.57-7.89,3.69a3.59,3.59,0,0,1-1.62-.95c-1.56-1.75,2-4.2,3.37-4.71a26.3,26.3,0,0,1,3.38-.9c.86-.18,1.73-.31,2.6-.42,1.43-.18,2.85-.29,4.28-.45h0l.27,0a1.63,1.63,0,0,0-.2.17c-.19.14-.35.27-.53.42C400.87,408,399.68,409.08,398.44,410.13Z" style="fill:#263238"></path><path d="M384.8,376.26l-35.91,21.87s-36.61-38.43-45-71.61c-2.53-10-45.27-72.3-59.61-87.91-18.87-20.55.15-45.58.15-45.58l52.12,0,.26,18.81C300.91,218.49,384.8,376.26,384.8,376.26Z" style="fill:#263238"></path><path d="M286,203a44,44,0,0,1,5.74,4.07,44.86,44.86,0,0,1,5.1,4.85,43.17,43.17,0,0,1-5.74-4.08A44.76,44.76,0,0,1,286,203Z" style="fill:#37474f"></path><path d="M277.14,96.33c-.64-4-1.49-8.21-7.47-10.15-12.83-4.15-22,13.34-36.81,18.94-17.84,6.78-25,17.55-17.74,24.47,8.11,7.75,23.17,3.43,35.63-18,7.8-13.39,14.75-16.77,17.95-16.72,2.31,0,5.55,4.68,5.55,4.68Z" style="fill:#263238"></path><path d="M255.23,104.34c-1.39,2-2.54,4.21-3.76,6.34s-2.4,4.28-3.66,6.37-2.59,4.15-4.06,6.09a36.6,36.6,0,0,1-4.84,5.4,18.7,18.7,0,0,1-6.06,3.81,21.14,21.14,0,0,1-7.17,1.16,16.15,16.15,0,0,1-7.1-1.72,14.52,14.52,0,0,1-3.09-2.07,14.84,14.84,0,0,1-1.31-1.32,6.5,6.5,0,0,1-1.06-1.54,9.28,9.28,0,0,0,2.17,3.08,14.7,14.7,0,0,0,3,2.34,16.1,16.1,0,0,0,3.55,1.5,16.93,16.93,0,0,0,3.81.62,20.4,20.4,0,0,0,3.83-.17l.95-.15.93-.19a16.48,16.48,0,0,0,1.86-.52,19.7,19.7,0,0,0,6.46-4,46.68,46.68,0,0,0,8.89-11.88c1.21-2.16,2.31-4.36,3.38-6.57S254.07,106.5,255.23,104.34Z" style="fill:#263238"></path><path d="M277.17,97.49a20.09,20.09,0,0,0-1-5,11,11,0,0,0-6.86-6.79,12.88,12.88,0,0,0-2.42-.57,11.92,11.92,0,0,0-2.46-.15,14.28,14.28,0,0,0-4.75,1.21,24.42,24.42,0,0,0-4.29,2.58c-2.72,2-5.24,4.32-7.85,6.55a68.73,68.73,0,0,1-8.28,6.24,67.34,67.34,0,0,1-9.33,4.52,76.66,76.66,0,0,0-9.3,4.23,20,20,0,0,0-4.12,3l-.9.89c-.28.33-.53.67-.8,1l-.4.5-.34.54-.67,1.1a17.39,17.39,0,0,1,6.88-7.56,78.84,78.84,0,0,1,9.24-4.62,75.76,75.76,0,0,0,9.06-4.65,67.51,67.51,0,0,0,8.08-6.18c2.62-2.2,5.14-4.54,8-6.55a25.39,25.39,0,0,1,4.56-2.63,14.38,14.38,0,0,1,5.18-1.17,13.11,13.11,0,0,1,2.66.26,15,15,0,0,1,2.55.7,11.11,11.11,0,0,1,6.91,7.48A18.08,18.08,0,0,1,277.17,97.49Z" style="fill:#263238"></path><path d="M281.24,96.56c-.12-1.24-1.2-2.72-2-2.84s-6.42,3.14-6.75,4.72,2.47,2.59,2.47,2.59Z" style="fill:#6373A3"></path><path d="M291.09,139.52c7.21-16,14.19-28.51,25-47.45,5.62-9.86,15.4-25.74,17.91-30,3.31-5.56,26.95,16,24.28,19.5-1.74,2.31-11.65,16.65-21.22,26.79-12.29,13-21.36,25.08-35.08,38.52C291.61,157.07,286.33,150.09,291.09,139.52Z" style="fill:#eb9481"></path><path d="M351.63,88.42c5.93-2.3,23.92-15,26.9-18.24s10.89-13.36,8.61-15.9-4.83.22-4.83.22,3-5.19.13-7.13c-2.28-1.54-6.07,2.16-6.07,2.16s3-5.86-.1-7.42c-2.81-1.43-5.89,3.6-5.89,3.6s2-5.16-1-6c-3.57-1-7,7.9-10.6,11.28-.81.77-23.57,14.51-23.57,14.51Z" style="fill:#eb9481"></path><path d="M370.24,45.44c-3.27,6.42-4.81,9-10.38,13.1-.11.08,0,.26.1.18,5.83-3.53,7.88-6.43,10.61-13.17C370.7,45.22,370.4,45.14,370.24,45.44Z" style="fill:#263238"></path><path d="M376.3,49.52C373,56.1,370.55,58.59,365,63.33c-.08.07,0,.2.11.14,5.81-4.19,9-6.89,11.39-13.89C376.64,49.26,376.45,49.22,376.3,49.52Z" style="fill:#263238"></path><path d="M382,54.74c-3.61,6.14-6.14,9.16-12.09,13.08a.13.13,0,0,0,.13.22c6.46-3.4,9.64-7.14,12.14-13.17C382.38,54.46,382.26,54.35,382,54.74Z" style="fill:#263238"></path><path d="M330.89,67.79s2.45-9.65,11.61-13.2c3.69-1.44,8.86-12.41,12.27-12.19,3.81.25,1.08,10.18-3.56,15.52,0,0,6.19,9.84,2,15.18-.91,1.16-7.56,4.83-9.22,4.49Z" style="fill:#eb9481"></path><path d="M350.93,58.63c2.55,3.75,4.32,9.44,2.51,13.58a.1.1,0,0,0,.18.1c2.55-4.17.55-10.78-1.92-14C351.22,57.7,350.27,57.67,350.93,58.63Z" style="fill:#263238"></path><path d="M298.08,184.82l-1.56,8.24h-51s8-41.79,26.65-54.19c9.34-6.2,17.86-3.48,22,3.48,1.05,1.76,11.72,20.2,11.42,29C305.31,179.19,298.08,184.82,298.08,184.82Z" style="fill:#eb9481"></path><path d="M305.6,171.39c-.27,7.31-6.66,12.73-7.45,13.38l0,0h0l-49.72-3.35c1.16-4.06,2.66-8.82,4.57-13.73a91.2,91.2,0,0,0,14.79-.67c2.17-.41,7-7.64,13.18-6.9s12.36,6.9,12.36,6.9a20,20,0,0,1,10.1-5.83C304.75,165,305.7,168.67,305.6,171.39Z" style="fill:#263238"></path><path d="M294.18,142.34a13.37,13.37,0,0,0-.87-1.3c1.47,4.26,4.25,13.65.67,14.58-3.93,1-13.82-14.33-16.88-19.24a22.78,22.78,0,0,0-4.92,2.49c-14.31,9.35-26.3,43.12-27.77,54.16l52.12,0,1.55-8.24s7.23-5.63,7.52-13.43C305.9,162.55,295.23,144.11,294.18,142.34Zm-19.43,20.45c-2.64,5.71-8.65,10.14-12.65,9.6-3.27-.45-4.8-4.89-3.5-10.56,2.24-9.66,11.77-23.9,16.11-23.56C279.69,138.66,279.13,153.28,274.75,162.79Z" style="fill:#455a64"></path><path d="M281.59,177.9a48.31,48.31,0,0,1,8.2,2.15c1.33.5,2.62,1.08,3.92,1.68.64.31,1.29.58,2,.85a7.52,7.52,0,0,0,2.11.62c.06,0,.05.12,0,.12a12.91,12.91,0,0,1-2.06-.17,13.82,13.82,0,0,1-1.94-.57c-1.35-.49-2.68-1.06-4-1.57-2.72-1-5.43-2-8.2-2.84C281.41,178.14,281.46,177.87,281.59,177.9Z" style="fill:#263238"></path><path d="M274.51,180.46a52,52,0,0,1,6.95,0c1.16.09,2.3.26,3.45.46.54.1,1.09.21,1.63.33s1.18.36,1.78.48c.07,0,.06.13,0,.12-.57-.1-1.16-.07-1.73-.13l-1.73-.16c-1.15-.1-2.3-.19-3.46-.31-2.3-.24-4.6-.44-6.91-.58C274.36,180.68,274.39,180.46,274.51,180.46Z" style="fill:#263238"></path><path d="M249.2,175.85a136.92,136.92,0,0,0,14.84,0c9.53-.65,20.28-2.38,20.5-2.24.4.26,19.18-.18,19.18-.18l1.45.82.23-1-1.29-.7a9.34,9.34,0,0,0,.3-4.44c-.44-2.35-4-12-4.1-12.27s-6.26-14.22-6.34-14.3-.66-.51-.66-.51l6.14,14.89a42.27,42.27,0,0,1-6.15.89,74.05,74.05,0,0,1-7.54-.75s-4.4-11.56-5.1-12.75-3.08-7.12-3.32-7a6.88,6.88,0,0,1-.69.19s3.6,9,4.12,9.92,3.88,10.31,3.88,10.31.72,7.84.75,9.25a52.83,52.83,0,0,1-.94,6.21s-10.7,1.57-20.15,2.38c-7.88.69-14.78.65-14.88.65S249.2,175.85,249.2,175.85Z" style="fill:#fff"></path><path d="M290.59,160.86l.45,9.64c0,.51-.25.91-.59.93s-.63-.36-.65-.87l-.38-8-.43.39a.45.45,0,0,1-.31.15.63.63,0,0,1-.55-.43,1.13,1.13,0,0,1,.15-1.24l1.32-1.26s0,0,0,0,0,0,.06,0l.06,0s0,0,.05,0a.11.11,0,0,1,.08,0H290a0,0,0,0,0,0,0s.05,0,.07,0a0,0,0,0,1,.05,0s.05.05.07.05a.11.11,0,0,0,.05,0l0,.05s0,0,.05.06,0,0,0,.07l.05.06v0s0,0,0,0,0,.05,0,.08,0,.07,0,.08a.45.45,0,0,1,0,.08.17.17,0,0,0,0,.12Z" style="fill:#263238"></path><path d="M294.34,160.68l.46,9.65c0,.5-.25.91-.59.93s-.63-.37-.66-.88l-.37-8-.44.4a.4.4,0,0,1-.3.14.6.6,0,0,1-.55-.43,1.12,1.12,0,0,1,.14-1.24l1.33-1.25,0,0s0,0,.05,0l.07,0a0,0,0,0,1,0,0,.13.13,0,0,1,.08,0h.17a.09.09,0,0,1,.07,0h0s.05,0,.07,0l.05.05,0,0,.05.07a.16.16,0,0,1,0,.06l.05.06v0s0,0,0,.05a.19.19,0,0,1,0,.08.41.41,0,0,1,0,.08s0,.06,0,.08a.29.29,0,0,0,0,.11Z" style="fill:#263238"></path><path d="M300.81,160.72l-2.35,9.8c-.08.34-.29.55-.55.56a.43.43,0,0,1-.24-.05,1.14,1.14,0,0,1-.39-1.16l2-8.5-2.89.13c-.34,0-.64-.4-.66-.89s.24-.91.57-.92l3.85-.18a.22.22,0,0,1,.11,0,.68.68,0,0,1,.24.12l0,.05a.09.09,0,0,1,0,.06l.05.06,0,.07a.69.69,0,0,1,0,.08l0,.08s0,.06,0,.08a.26.26,0,0,0,0,.08,2.14,2.14,0,0,1,0,.36C300.82,160.62,300.82,160.67,300.81,160.72Z" style="fill:#263238"></path><path d="M280.91,137c.19,1.13,5.06,8.71,10.18,8.8,1.66,0,2.21-9.06,2.21-9.06l.19-.67,2.7-9.26L285.6,119l-1.54-1s-.57,2.58-1.25,5.81c0,.15-.06.3-.1.46s-.08.35-.11.52c-.11.48-.22,1-.32,1.46s-.15.74-.21,1.13-.14.78-.22,1.18A63.14,63.14,0,0,0,280.91,137Z" style="fill:#eb9481"></path><path d="M282.81,123.79a19.36,19.36,0,0,0,10.68,12.28l2.7-9.26L285.6,119l-1.54-1S283.49,120.56,282.81,123.79Z" style="fill:#263238"></path><path d="M304.05,105.05c8.29,14.78.37,21.41-2.82,23.19-2.89,1.62-13,6.77-22.72-7.07s-5.52-22.37.91-26.42S295.76,90.28,304.05,105.05Z" style="fill:#eb9481"></path><path d="M300,103.84a8.92,8.92,0,0,1-1.11.35,1.88,1.88,0,0,1-1.21.14.6.6,0,0,1-.36-.64,1.49,1.49,0,0,1,1.11-1,2.21,2.21,0,0,1,1.58,0A.64.64,0,0,1,300,103.84Z" style="fill:#263238"></path><path d="M290.33,109.35a8.13,8.13,0,0,0,.9-.75,1.86,1.86,0,0,0,.78-.93.59.59,0,0,0-.35-.65,1.46,1.46,0,0,0-1.46.38,2.14,2.14,0,0,0-.86,1.33A.64.64,0,0,0,290.33,109.35Z" style="fill:#263238"></path><path d="M298.43,119.32a1.74,1.74,0,0,0,1.16.18,2.85,2.85,0,0,0,1-.8s.08,0,.07,0a1.55,1.55,0,0,1-1,1.21,1.23,1.23,0,0,1-1.26-.53C298.3,119.36,298.37,119.3,298.43,119.32Z" style="fill:#263238"></path><path d="M300.61,113.33s1.05,1.39,1.44,2.1c0,.06-.11.19-.35.34,0,0,0,0,0,0a3.87,3.87,0,0,1-4,.56.09.09,0,0,1,.05-.16,5.8,5.8,0,0,0,3.57-.83c-.06-.22-1.87-2.32-1.76-2.39a7,7,0,0,1,1.81-.53c-2.09-3-4.64-5.56-6.68-8.53a.11.11,0,0,1,.16-.15,58.71,58.71,0,0,1,7.59,8.88C302.72,113,301,113.29,300.61,113.33Z" style="fill:#263238"></path><path d="M300.87,116a3.94,3.94,0,0,1-.81,1.8,1.78,1.78,0,0,1-.91.56c-.77.18-1.12-.43-1.28-1a3.76,3.76,0,0,1-.13-1A5,5,0,0,0,300.87,116Z" style="fill:#263238"></path><path d="M300.06,117.78a1.78,1.78,0,0,1-.91.56c-.77.18-1.12-.43-1.28-1A1.82,1.82,0,0,1,300.06,117.78Z" style="fill:#ff9cbd"></path><path d="M292.43,112.75a1.07,1.07,0,0,1-.09.41.76.76,0,0,1-.46.47c-.66.26-1.27-.26-1.64-.88,0,0,0-.08,0-.06.43.19.91.37,1.24.13a1.55,1.55,0,0,0,.41-.77A4.48,4.48,0,0,0,292.43,112.75Z" style="fill:#263238"></path><path d="M292,112.75a1.84,1.84,0,0,1-.1-1,1.35,1.35,0,0,1,.62-.86,1.19,1.19,0,0,1,1.07,0,2.06,2.06,0,0,1,.75.6,3.64,3.64,0,0,1,.32.48,2.63,2.63,0,0,1,.36,1.14,4.55,4.55,0,0,0-.47-.73,6,6,0,0,0-.54-.58c-.39-.36-.86-.58-1.2-.36a1,1,0,0,0-.38,1.2,8.44,8.44,0,0,0,.54,1.58A3.74,3.74,0,0,1,292,112.75Z" style="fill:#263238"></path><path d="M301.54,107.08a1.56,1.56,0,0,0,.39.15.8.8,0,0,0,.65-.13,1.42,1.42,0,0,0,.16-1.85s-.06-.07-.07,0c-.08.47-.19,1-.57,1.11a1.47,1.47,0,0,1-.87-.08A3.72,3.72,0,0,1,301.54,107.08Z" style="fill:#263238"></path><path d="M301.76,106.73a1.92,1.92,0,0,0-.76-.6,1.35,1.35,0,0,0-1.06.05,1.21,1.21,0,0,0-.62.87,2.16,2.16,0,0,0,.09,1c.07.18.15.36.23.53a2.64,2.64,0,0,0,.77.92,3.57,3.57,0,0,1-.36-.8,5,5,0,0,1-.2-.76c-.08-.53,0-1,.36-1.2a1,1,0,0,1,1.21.34,8.06,8.06,0,0,1,1,1.31A3.75,3.75,0,0,0,301.76,106.73Z" style="fill:#263238"></path><path d="M285.74,96a7.49,7.49,0,0,1,1.87,4c.16,4.24-4.39,5.49-5.08,7.56s1.17,4.31.65,6.19c-.73,2.6-2.5,1.94-2.15,3.25s1.52,5.45.28,6.71-21.13-20-1.2-29.42c0,0,2.11-2.68,7.36-2.59C295,91.83,300,99,300,99a5.49,5.49,0,0,1-2.29.12c-1.37-.33-2.17-.71-3.14-.89-1.53-.27-1.88.68-3.44.45C288.72,98.31,285.74,96,285.74,96Z" style="fill:#263238"></path><path d="M285.12,95.22a14.88,14.88,0,0,1,2.14,2.69,6.14,6.14,0,0,1,1.11,3.12A4.59,4.59,0,0,1,287,104c-.75.83-1.72,1.46-2.51,2.39a3.46,3.46,0,0,0-.79,1.67,4.65,4.65,0,0,0,.21,1.8,6.09,6.09,0,0,1,.34,3.27,3.84,3.84,0,0,1-2,2.47c-1,.52-2.22.81-2.95,1.75.81-.88,2-1,3.06-1.51a4.1,4.1,0,0,0,2.33-2.6,6.06,6.06,0,0,0-.26-3.51,4.29,4.29,0,0,1-.18-1.6,3,3,0,0,1,.7-1.4c.7-.85,1.67-1.51,2.46-2.4a5.78,5.78,0,0,0,1-1.49,3.61,3.61,0,0,0,.39-1.77,6.43,6.43,0,0,0-1.31-3.26A14.58,14.58,0,0,0,285.12,95.22Z" style="fill:#263238"></path><path d="M286,95.91a12,12,0,0,0,2.36,2.2,5.67,5.67,0,0,0,3.09,1.12,8.2,8.2,0,0,0,1.62-.18,2.63,2.63,0,0,1,1.43.15,8.5,8.5,0,0,0,1.45.71,3.57,3.57,0,0,0,1.62.07,3.87,3.87,0,0,1-1.52-.33,7.73,7.73,0,0,1-1.35-.82,2.79,2.79,0,0,0-1.69-.29,8.52,8.52,0,0,1-1.54.15,6,6,0,0,1-2.87-1A25,25,0,0,1,286,95.91Z" style="fill:#263238"></path><path d="M281.9,120.55s-5.38-3.56-7.12-1.45,3.65,8.21,6.66,8.15a2.86,2.86,0,0,0,3-2.84Z" style="fill:#eb9481"></path><path d="M276.37,120.81c-.05,0,0,.08,0,.08,2.13,0,3.77,1.34,5.15,2.83a1.58,1.58,0,0,0-2.36.47c0,.06,0,.11.09.08a1.76,1.76,0,0,1,2-.14,8.57,8.57,0,0,1,1.44,1.12c.15.13.41-.08.27-.24l0,0C282.09,122.61,279,120.05,276.37,120.81Z" style="fill:#263238"></path><path d="M306,109.18A18.66,18.66,0,0,1,307.9,116a14.31,14.31,0,0,1-.15,3.58,15,15,0,0,1-.4,1.76,15.22,15.22,0,0,1-.67,1.69,13.4,13.4,0,0,1-2,3,13.73,13.73,0,0,1-2.77,2.28,14.51,14.51,0,0,1-6.73,2.12,16,16,0,0,0,3.36-1,14.92,14.92,0,0,0,5.63-3.88,12.39,12.39,0,0,0,1.88-2.84,13.83,13.83,0,0,0,1.32-6.67,19.19,19.19,0,0,0-.39-3.45A22.61,22.61,0,0,0,306,109.18Z" style="fill:#263238"></path><path d="M268.76,152.08c-.24-.39-.48-.78-.73-1.17,1.56,1.58,3.18,3.08,4.86,4.53,0,0,.1,0,.06-.06-1.65-1.9-3.33-3.76-5.08-5.57-.83-.85-1.63-1.73-2.49-2.56s-2-1.81-2.88-2.79c-.11-.12-.3,0-.19.15.87.93,1.65,1.94,2.49,2.91s1.5,1.64,2.28,2.43a9.75,9.75,0,0,0,.49.9c.3.47.6.93.93,1.38.66.89,1.36,1.76,2,2.63a0,0,0,1,0,0,0C269.92,154,269.33,153,268.76,152.08Z" style="fill:#263238"></path><path d="M275.42,138.12c-7.65-17-14.06-29.27-25.53-49.38-6-10.47-13.54-23-16.21-27.52-3.51-5.91-28.61,16.93-25.77,20.7,1.84,2.46,7.94,10.4,18.71,23.16,12.28,14.53,22.68,26.62,37.25,40.9C274.87,156.75,280.48,149.34,275.42,138.12Z" style="fill:#eb9481"></path><path d="M214.12,87.62c-6.3-2.44-25.39-15.88-28.56-19.37S174,54.08,176.42,51.38s5.13.23,5.13.23-3.18-5.51-.14-7.57c2.42-1.64,6.44,2.29,6.44,2.29s-3.16-6.22.11-7.88c3-1.51,6.26,3.82,6.26,3.82s-2.12-5.47,1-6.38c3.79-1.08,7.46,8.4,11.25,12,.86.82,25,15.4,25,15.4Z" style="fill:#eb9481"></path><path d="M194.35,42c3.48,6.82,5.12,9.54,11,13.91.11.08,0,.27-.12.19-6.19-3.75-8.36-6.83-11.26-14C193.87,41.76,194.19,41.67,194.35,42Z" style="fill:#263238"></path><path d="M187.93,46.32c3.45,7,6.1,9.63,12,14.66.08.07,0,.22-.12.16-6.16-4.46-9.56-7.33-12.09-14.76C187.56,46.05,187.77,46,187.93,46.32Z" style="fill:#263238"></path><path d="M181.84,51.86c3.83,6.52,6.52,9.73,12.84,13.89a.14.14,0,0,1-.14.24c-6.86-3.61-10.24-7.59-12.89-14C181.47,51.56,181.6,51.45,181.84,51.86Z" style="fill:#263238"></path><path d="M236.14,65.72s-2.6-10.25-12.32-14c-3.93-1.52-9.42-13.17-13-12.94-4,.27-1.15,10.81,3.78,16.48,0,0-6.58,10.44-2.1,16.12,1,1.23,8,5.12,9.78,4.77Z" style="fill:#eb9481"></path><path d="M214.86,56c-2.7,4-4.59,10-2.66,14.41a.11.11,0,0,1-.2.11c-2.7-4.43-.58-11.45,2.05-14.86C214.55,55,215.56,55,214.86,56Z" style="fill:#263238"></path><path d="M296.56,195.29C284.44,189.52,249.72,177.73,226,172c-21.23-5.11-43.17,2.26-64.38,9.38-13.41,4.5-26.07,8.75-38.35,9.88-48.19,4.44-63.93-29.8-65-31.26l8.9,2.22,1.57-9.94c.9,1.22,12.68,29.78,53.35,26,10.77-1,22.73-5,35.4-9.26,21.89-7.35,46.7-15.68,71.56-9.7,24.59,5.91,62.32,17.66,71.15,23.43Z" style="fill:#6373A3"></path><path d="M128.17,446.9l9.35-1.69s-10-10.2-3.85-16.48S149,428,149,428s-1.43-14.93,10.12-18.05,21.7,19.19,21.7,19.19,1.7-5.24,10.32-3.18,15.43,13.8,15.43,13.8l177.21,7.05" style="fill:#fff"></path><path d="M128.17,446.9l9.34-1.73,0,.07a25.75,25.75,0,0,1-4.92-7.28,11.51,11.51,0,0,1-1-4.3,6.83,6.83,0,0,1,1.32-4.2,8.64,8.64,0,0,1,1.53-1.61,9.7,9.7,0,0,1,1.87-1.22,10.2,10.2,0,0,1,4.3-1,17.21,17.21,0,0,1,8.49,2.27l-.25.16a25.18,25.18,0,0,1,.44-6.71,17.88,17.88,0,0,1,2.46-6.25,12.51,12.51,0,0,1,8.24-5.51,8.9,8.9,0,0,1,3.41.1,14.52,14.52,0,0,1,6,3.12,32.38,32.38,0,0,1,4.67,4.84,60.88,60.88,0,0,1,7,11.44l-.42,0a5.82,5.82,0,0,1,2.94-3,9.07,9.07,0,0,1,4.1-.79,15.55,15.55,0,0,1,7.9,2.36,28.83,28.83,0,0,1,6.25,5.4,45.56,45.56,0,0,1,4.91,6.64l-.13-.08,177.21,7.21-177.22-6.9h-.08l0-.07a44.17,44.17,0,0,0-4.9-6.57,28.22,28.22,0,0,0-6.19-5.3,15.14,15.14,0,0,0-7.71-2.28,8.58,8.58,0,0,0-3.91.77,5.34,5.34,0,0,0-2.69,2.75l-.2.48-.22-.46a60.62,60.62,0,0,0-7-11.31,31.42,31.42,0,0,0-4.58-4.78,14.15,14.15,0,0,0-5.77-3.06A8.61,8.61,0,0,0,160,410a12.3,12.3,0,0,0-3.11,1,11.9,11.9,0,0,0-4.88,4.29,17.59,17.59,0,0,0-2.42,6.12,25.21,25.21,0,0,0-.47,6.6l0,.31-.27-.15a16.88,16.88,0,0,0-8.31-2.26,9.93,9.93,0,0,0-4.19,1,9.41,9.41,0,0,0-3.31,2.73,6.57,6.57,0,0,0-1.28,4,11.29,11.29,0,0,0,.92,4.23,25.86,25.86,0,0,0,4.81,7.29l.06.06h-.08Z" style="fill:#263238"></path><path d="M246.25,187.37c-5,.2-10,.3-15,.38s-10,.08-15,.12-10,0-15-.12l-7.51-.14c-2.5-.08-5-.13-7.5-.24,2.5-.11,5-.16,7.5-.25l7.51-.14c5-.08,10-.07,15-.11s10,0,15,.12S241.24,187.16,246.25,187.37Z" style="fill:#263238"></path><path d="M323.51,68.84c-5,.2-10,.3-15,.38s-10,.07-15,.11-10,0-15-.11L271,69.08c-2.5-.08-5-.13-7.51-.24,2.51-.12,5-.17,7.51-.25l7.51-.14c5-.08,10-.08,15-.11s10,0,15,.11S318.5,68.63,323.51,68.84Z" style="fill:#263238"></path><path d="M331.39,74.9c-3.28.21-6.55.3-9.83.38s-6.55.11-9.82.12-6.56,0-9.83-.11L297,75.15c-1.63-.09-3.27-.13-4.91-.25,1.64-.11,3.28-.16,4.91-.24l4.92-.14c3.27-.09,6.55-.11,9.83-.12s6.55,0,9.82.12S328.11,74.7,331.39,74.9Z" style="fill:#263238"></path><path d="M117.13,260.2c-4.39.2-8.79.3-13.18.38s-8.79.08-13.18.12-8.79,0-13.19-.12L71,260.44c-2.2-.08-4.4-.13-6.59-.24,2.19-.11,4.39-.16,6.59-.25l6.59-.14c4.4-.08,8.79-.07,13.19-.11s8.79,0,13.18.12S112.74,260,117.13,260.2Z" style="fill:#263238"></path><path d="M146.18,251.19c-4.4.2-8.79.3-13.19.38s-8.79.08-13.18.12-8.79,0-13.19-.12l-6.59-.14c-2.2-.08-4.39-.13-6.59-.24,2.2-.12,4.39-.16,6.59-.25l6.59-.14c4.4-.08,8.79-.07,13.19-.11s8.79,0,13.18.11S141.78,251,146.18,251.19Z" style="fill:#263238"></path><path d="M255.26,200.24c-7,.21-14,.3-21,.38l-21,.12-21-.11-10.48-.14c-3.5-.09-7-.13-10.49-.25,3.5-.11,7-.16,10.49-.24l10.48-.14,21-.12,21,.12C241.29,199.94,248.27,200,255.26,200.24Z" style="fill:#263238"></path><path d="M362.57,428.9c-5.06.21-10.12.3-15.18.38s-10.13.08-15.19.12-10.12,0-15.18-.12l-7.6-.14c-2.53-.08-5.06-.13-7.59-.24,2.53-.11,5.06-.16,7.59-.25l7.6-.14c5.06-.07,10.12-.07,15.18-.11s10.13,0,15.19.12S357.51,428.69,362.57,428.9Z" style="fill:#263238"></path><path d="M347.86,435.43c-7.15.21-14.31.31-21.46.39l-21.47.11-21.46-.11-10.73-.14c-3.58-.08-7.15-.13-10.73-.25,3.58-.11,7.15-.16,10.73-.24l10.73-.14,21.46-.12,21.47.12C333.55,435.13,340.71,435.23,347.86,435.43Z" style="fill:#263238"></path><path d="M212.37,192.25c-6,.2-12.07.3-18.1.38s-12.07.07-18.1.12-12.07,0-18.11-.12l-9.05-.14c-3-.08-6-.13-9-.24,3-.12,6-.17,9-.25l9.05-.14c6-.08,12.07-.07,18.11-.11s12.06,0,18.1.11S206.34,192,212.37,192.25Z" style="fill:#263238"></path></g></svg>